<svg width="30" height="25" viewBox="0 0 30 25" fill="none" xmlns="http://www.w3.org/2000/svg">
<g filter="url(#filter0_d_4_30)">
<path d="M11.6499 16C9.57026 16 7.63168 15.3864 6 14.3276C7.38535 14.4185 9.83019 14.2007 11.3509 12.7292C9.06326 12.6227 8.0316 10.8428 7.89703 10.0822C8.0914 10.1582 9.01841 10.2495 9.54172 10.0365C6.91022 9.36714 6.50652 7.02434 6.59624 6.30933C7.08964 6.65923 7.92694 6.78093 8.25587 6.75051C5.8038 4.97059 6.68595 2.2931 7.11954 1.71501C8.87924 4.18826 11.5165 5.57733 14.7791 5.65459C14.7176 5.38089 14.6851 5.09593 14.6851 4.80325C14.6851 2.70277 16.3586 1 18.423 1C19.5016 1 20.4735 1.46484 21.1558 2.20837C21.8766 2.03703 22.9613 1.63591 23.4916 1.28905C23.2243 2.26268 22.3922 3.07488 21.8888 3.37592C21.8847 3.36563 21.893 3.38616 21.8888 3.37592C22.331 3.30807 23.5274 3.07481 24 2.74949C23.7663 3.29647 22.884 4.20591 22.16 4.71506C22.2947 10.7422 17.7492 16 11.6499 16Z" fill="white"/>
<path d="M21.8888 3.37592C22.3922 3.07488 23.2243 2.26268 23.4916 1.28905C22.9613 1.63591 21.8766 2.03703 21.1558 2.20837C20.4735 1.46484 19.5016 1 18.423 1C16.3586 1 14.6851 2.70277 14.6851 4.80325C14.6851 5.09593 14.7176 5.38089 14.7791 5.65459C11.5165 5.57733 8.87924 4.18826 7.11954 1.71501C6.68595 2.2931 5.8038 4.97059 8.25587 6.75051C7.92694 6.78093 7.08964 6.65923 6.59624 6.30933C6.50652 7.02434 6.91022 9.36714 9.54172 10.0365C9.01841 10.2495 8.0914 10.1582 7.89703 10.0822C8.0316 10.8428 9.06326 12.6227 11.3509 12.7292C9.83019 14.2007 7.38535 14.4185 6 14.3276C7.63168 15.3864 9.57026 16 11.6499 16C17.7492 16 22.2947 10.7422 22.16 4.71506C22.884 4.20591 23.7663 3.29647 24 2.74949C23.5274 3.07481 22.331 3.30807 21.8888 3.37592ZM21.8888 3.37592C21.8847 3.36563 21.893 3.38616 21.8888 3.37592Z" stroke="black"/>
</g>
<defs>
<filter id="filter0_d_4_30" x="0.118896" y="0.147461" width="29.0188" height="24.3525" filterUnits="userSpaceOnUse" color-interpolation-filters="sRGB">
<feFlood flood-opacity="0" result="BackgroundImageFix"/>
<feColorMatrix in="SourceAlpha" type="matrix" values="0 0 0 0 0 0 0 0 0 0 0 0 0 0 0 0 0 0 127 0" result="hardAlpha"/>
<feOffset dy="4"/>
<feGaussianBlur stdDeviation="2"/>
<feComposite in2="hardAlpha" operator="out"/>
<feColorMatrix type="matrix" values="0 0 0 0 0 0 0 0 0 0 0 0 0 0 0 0 0 0 0.25 0"/>
<feBlend mode="normal" in2="BackgroundImageFix" result="effect1_dropShadow_4_30"/>
<feBlend mode="normal" in="SourceGraphic" in2="effect1_dropShadow_4_30" result="shape"/>
</filter>
</defs>
</svg>
